<mxfile host="app.diagrams.net" modified="2024-05-25T18:31:32.023Z" agent="Mozilla/5.0 (Windows NT 10.0; Win64; x64) AppleWebKit/537.36 (KHTML, like Gecko) Chrome/125.0.0.0 Safari/537.36" etag="GKwKv1kiUEef7ZntRkq-" version="24.4.8" type="device">
  <diagram name="Page-1" id="wFLni8lorN4-aRmTaK8M">
    <mxGraphModel dx="1050" dy="522" grid="1" gridSize="10" guides="1" tooltips="1" connect="1" arrows="1" fold="1" page="1" pageScale="1" pageWidth="850" pageHeight="1100" math="0" shadow="0">
      <root>
        <mxCell id="0" />
        <mxCell id="1" parent="0" />
        <mxCell id="nY0lMfh_gsZ25pikA3Gp-16" style="edgeStyle=orthogonalEdgeStyle;rounded=0;orthogonalLoop=1;jettySize=auto;html=1;exitX=0.25;exitY=1;exitDx=0;exitDy=0;entryX=0;entryY=0.5;entryDx=0;entryDy=0;endArrow=none;endFill=0;" edge="1" parent="1" source="nY0lMfh_gsZ25pikA3Gp-1" target="nY0lMfh_gsZ25pikA3Gp-2">
          <mxGeometry relative="1" as="geometry" />
        </mxCell>
        <mxCell id="nY0lMfh_gsZ25pikA3Gp-17" style="edgeStyle=orthogonalEdgeStyle;rounded=0;orthogonalLoop=1;jettySize=auto;html=1;exitX=0.25;exitY=1;exitDx=0;exitDy=0;entryX=0;entryY=0.5;entryDx=0;entryDy=0;endArrow=none;endFill=0;" edge="1" parent="1" source="nY0lMfh_gsZ25pikA3Gp-1" target="nY0lMfh_gsZ25pikA3Gp-3">
          <mxGeometry relative="1" as="geometry" />
        </mxCell>
        <mxCell id="nY0lMfh_gsZ25pikA3Gp-18" style="edgeStyle=orthogonalEdgeStyle;rounded=0;orthogonalLoop=1;jettySize=auto;html=1;exitX=0.25;exitY=1;exitDx=0;exitDy=0;entryX=0;entryY=0.5;entryDx=0;entryDy=0;endArrow=none;endFill=0;" edge="1" parent="1" source="nY0lMfh_gsZ25pikA3Gp-1" target="nY0lMfh_gsZ25pikA3Gp-4">
          <mxGeometry relative="1" as="geometry" />
        </mxCell>
        <mxCell id="nY0lMfh_gsZ25pikA3Gp-19" style="edgeStyle=orthogonalEdgeStyle;rounded=0;orthogonalLoop=1;jettySize=auto;html=1;exitX=0.25;exitY=1;exitDx=0;exitDy=0;entryX=0;entryY=0.5;entryDx=0;entryDy=0;endArrow=none;endFill=0;" edge="1" parent="1" source="nY0lMfh_gsZ25pikA3Gp-1" target="nY0lMfh_gsZ25pikA3Gp-6">
          <mxGeometry relative="1" as="geometry" />
        </mxCell>
        <mxCell id="nY0lMfh_gsZ25pikA3Gp-20" style="edgeStyle=orthogonalEdgeStyle;rounded=0;orthogonalLoop=1;jettySize=auto;html=1;exitX=0.25;exitY=1;exitDx=0;exitDy=0;entryX=0;entryY=0.5;entryDx=0;entryDy=0;endArrow=none;endFill=0;" edge="1" parent="1" source="nY0lMfh_gsZ25pikA3Gp-1" target="nY0lMfh_gsZ25pikA3Gp-10">
          <mxGeometry relative="1" as="geometry" />
        </mxCell>
        <mxCell id="nY0lMfh_gsZ25pikA3Gp-21" style="edgeStyle=orthogonalEdgeStyle;rounded=0;orthogonalLoop=1;jettySize=auto;html=1;exitX=0.25;exitY=1;exitDx=0;exitDy=0;entryX=0;entryY=0.5;entryDx=0;entryDy=0;endArrow=none;endFill=0;" edge="1" parent="1" source="nY0lMfh_gsZ25pikA3Gp-1" target="nY0lMfh_gsZ25pikA3Gp-11">
          <mxGeometry relative="1" as="geometry" />
        </mxCell>
        <mxCell id="nY0lMfh_gsZ25pikA3Gp-1" value="project root" style="whiteSpace=wrap;html=1;fillColor=#f8cecc;strokeColor=#b85450;" vertex="1" parent="1">
          <mxGeometry x="80" y="90" width="80" height="30" as="geometry" />
        </mxCell>
        <mxCell id="nY0lMfh_gsZ25pikA3Gp-2" value="bin" style="whiteSpace=wrap;html=1;fillColor=#dae8fc;strokeColor=#6c8ebf;" vertex="1" parent="1">
          <mxGeometry x="120" y="140" width="90" height="30" as="geometry" />
        </mxCell>
        <mxCell id="nY0lMfh_gsZ25pikA3Gp-3" value="config" style="whiteSpace=wrap;html=1;fillColor=#dae8fc;strokeColor=#6c8ebf;" vertex="1" parent="1">
          <mxGeometry x="120" y="190" width="90" height="30" as="geometry" />
        </mxCell>
        <mxCell id="nY0lMfh_gsZ25pikA3Gp-4" value="migrations" style="whiteSpace=wrap;html=1;fillColor=#dae8fc;strokeColor=#6c8ebf;" vertex="1" parent="1">
          <mxGeometry x="120" y="240" width="90" height="30" as="geometry" />
        </mxCell>
        <mxCell id="nY0lMfh_gsZ25pikA3Gp-22" style="edgeStyle=orthogonalEdgeStyle;rounded=0;orthogonalLoop=1;jettySize=auto;html=1;exitX=0.25;exitY=1;exitDx=0;exitDy=0;entryX=0;entryY=0.5;entryDx=0;entryDy=0;endArrow=none;endFill=0;" edge="1" parent="1" source="nY0lMfh_gsZ25pikA3Gp-6" target="nY0lMfh_gsZ25pikA3Gp-12">
          <mxGeometry relative="1" as="geometry" />
        </mxCell>
        <mxCell id="nY0lMfh_gsZ25pikA3Gp-23" style="edgeStyle=orthogonalEdgeStyle;rounded=0;orthogonalLoop=1;jettySize=auto;html=1;exitX=0.25;exitY=1;exitDx=0;exitDy=0;entryX=0;entryY=0.5;entryDx=0;entryDy=0;endArrow=none;endFill=0;" edge="1" parent="1" source="nY0lMfh_gsZ25pikA3Gp-6" target="nY0lMfh_gsZ25pikA3Gp-13">
          <mxGeometry relative="1" as="geometry" />
        </mxCell>
        <mxCell id="nY0lMfh_gsZ25pikA3Gp-24" style="edgeStyle=orthogonalEdgeStyle;rounded=0;orthogonalLoop=1;jettySize=auto;html=1;exitX=0.25;exitY=1;exitDx=0;exitDy=0;entryX=0;entryY=0.5;entryDx=0;entryDy=0;endArrow=none;endFill=0;" edge="1" parent="1" source="nY0lMfh_gsZ25pikA3Gp-6" target="nY0lMfh_gsZ25pikA3Gp-15">
          <mxGeometry relative="1" as="geometry" />
        </mxCell>
        <mxCell id="nY0lMfh_gsZ25pikA3Gp-25" style="edgeStyle=orthogonalEdgeStyle;rounded=0;orthogonalLoop=1;jettySize=auto;html=1;exitX=0.25;exitY=1;exitDx=0;exitDy=0;entryX=0;entryY=0.5;entryDx=0;entryDy=0;endArrow=none;endFill=0;" edge="1" parent="1" source="nY0lMfh_gsZ25pikA3Gp-6" target="nY0lMfh_gsZ25pikA3Gp-14">
          <mxGeometry relative="1" as="geometry" />
        </mxCell>
        <mxCell id="nY0lMfh_gsZ25pikA3Gp-6" value="src" style="whiteSpace=wrap;html=1;fillColor=#dae8fc;strokeColor=#6c8ebf;" vertex="1" parent="1">
          <mxGeometry x="120" y="290" width="90" height="30" as="geometry" />
        </mxCell>
        <mxCell id="nY0lMfh_gsZ25pikA3Gp-10" value="composer.json" style="whiteSpace=wrap;html=1;fillColor=#dae8fc;strokeColor=#6c8ebf;" vertex="1" parent="1">
          <mxGeometry x="120" y="540" width="90" height="30" as="geometry" />
        </mxCell>
        <mxCell id="nY0lMfh_gsZ25pikA3Gp-11" value="composer.lock" style="whiteSpace=wrap;html=1;fillColor=#dae8fc;strokeColor=#6c8ebf;" vertex="1" parent="1">
          <mxGeometry x="120" y="590" width="90" height="30" as="geometry" />
        </mxCell>
        <mxCell id="nY0lMfh_gsZ25pikA3Gp-12" value="Controller" style="whiteSpace=wrap;html=1;fillColor=#ffe6cc;strokeColor=#d79b00;" vertex="1" parent="1">
          <mxGeometry x="170" y="340" width="90" height="30" as="geometry" />
        </mxCell>
        <mxCell id="nY0lMfh_gsZ25pikA3Gp-13" value="Entity" style="whiteSpace=wrap;html=1;fillColor=#ffe6cc;strokeColor=#d79b00;" vertex="1" parent="1">
          <mxGeometry x="170" y="390" width="90" height="30" as="geometry" />
        </mxCell>
        <mxCell id="nY0lMfh_gsZ25pikA3Gp-14" value="Kernel.php" style="whiteSpace=wrap;html=1;fillColor=#ffe6cc;strokeColor=#d79b00;" vertex="1" parent="1">
          <mxGeometry x="170" y="490" width="90" height="30" as="geometry" />
        </mxCell>
        <mxCell id="nY0lMfh_gsZ25pikA3Gp-15" value="Repository" style="whiteSpace=wrap;html=1;fillColor=#ffe6cc;strokeColor=#d79b00;" vertex="1" parent="1">
          <mxGeometry x="170" y="440" width="90" height="30" as="geometry" />
        </mxCell>
      </root>
    </mxGraphModel>
  </diagram>
</mxfile>
